<?xml version="1.0" encoding="iso-8859-1"?>
<!-- Generator: Adobe Illustrator 19.0.0, SVG Export Plug-In . SVG Version: 6.00 Build 0)  -->
<svg version="1.1" id="Capa_1" xmlns="http://www.w3.org/2000/svg" xmlns:xlink="http://www.w3.org/1999/xlink" x="0px" y="0px"
	 viewBox="0 0 59.441 59.441" style="enable-background:new 0 0 59.441 59.441;" xml:space="preserve">
<g>
	<path d="M59.441,15.672c0-1.749-0.682-3.394-1.918-4.631l-9.123-9.123C47.163,0.681,45.518,0,43.769,0s-3.394,0.681-4.631,1.918
		l-9.703,9.703c-1.026-0.565-2.397-0.432-3.245,0.417L7.495,30.733c-1.053,1.053-1.053,2.766,0,3.818l5.162,5.162l-4.95,4.949
		l1.415,1.415L0.878,54.32c-1.17,1.17-1.17,3.072,0,4.242c0.567,0.566,1.32,0.879,2.122,0.879c0.801,0,1.555-0.313,2.121-0.879
		l8.243-8.243l1.415,1.415l4.949-4.95l5.161,5.162c0.51,0.51,1.188,0.791,1.91,0.791c0.722,0,1.4-0.281,1.91-0.791l18.695-18.695
		c0.51-0.51,0.792-1.188,0.792-1.91c0-0.48-0.135-0.936-0.369-1.341l9.697-9.697C58.759,19.065,59.441,17.421,59.441,15.672z
		 M45.989,31.837L27.293,50.532c-0.264,0.264-0.726,0.264-0.991,0l-5.161-5.162l0,0l-5.485-5.485l-6.747-6.747
		c-0.273-0.273-0.273-0.717,0-0.99l18.696-18.695c0.132-0.133,0.308-0.206,0.495-0.206s0.363,0.073,0.496,0.206l17.394,17.394
		c0.132,0.133,0.206,0.309,0.206,0.495C46.194,31.528,46.121,31.704,45.989,31.837z M54.006,19.577l-1.383,1.383
		c-0.665,0.665-1.55,1.031-2.49,1.031c-0.941,0-1.826-0.366-2.491-1.031l-9.161-9.161c-1.373-1.373-1.373-3.608,0-4.981l1.383-1.383
		c1.33-1.33,3.651-1.33,4.981,0l9.161,9.161C55.379,15.969,55.379,18.204,54.006,19.577z"/>
	<path d="M47.304,12.137c-0.391-0.391-1.023-0.391-1.414,0l-0.707,0.707c-0.391,0.391-0.391,1.023,0,1.414
		c0.195,0.195,0.451,0.293,0.707,0.293s0.512-0.098,0.707-0.293l0.707-0.707C47.695,13.16,47.695,12.527,47.304,12.137z"/>
	<path d="M50.133,16.379l-0.708,0.707c-0.391,0.39-0.391,1.023,0,1.414c0.195,0.195,0.452,0.293,0.708,0.293
		s0.512-0.098,0.707-0.293l0.708-0.707c0.391-0.39,0.391-1.023,0-1.414C51.157,15.988,50.523,15.988,50.133,16.379z"/>
	<path d="M45.183,10.016c-0.391-0.391-1.023-0.391-1.414,0l-0.707,0.707c-0.391,0.391-0.391,1.023,0,1.414
		c0.195,0.195,0.451,0.293,0.707,0.293s0.512-0.098,0.707-0.293l0.707-0.707C45.573,11.039,45.573,10.406,45.183,10.016z"/>
	<path d="M43.062,7.894c-0.391-0.391-1.023-0.391-1.414,0L40.94,8.601c-0.391,0.391-0.391,1.023,0,1.414
		c0.195,0.195,0.451,0.293,0.707,0.293s0.512-0.098,0.707-0.293l0.707-0.707C43.452,8.917,43.452,8.284,43.062,7.894z"/>
	<path d="M49.425,14.258c-0.391-0.391-1.023-0.391-1.414,0l-0.707,0.707c-0.391,0.391-0.391,1.023,0,1.414
		c0.195,0.195,0.451,0.293,0.707,0.293s0.512-0.098,0.707-0.293l0.707-0.707C49.816,15.281,49.816,14.648,49.425,14.258z"/>
</g>
<g>
</g>
<g>
</g>
<g>
</g>
<g>
</g>
<g>
</g>
<g>
</g>
<g>
</g>
<g>
</g>
<g>
</g>
<g>
</g>
<g>
</g>
<g>
</g>
<g>
</g>
<g>
</g>
<g>
</g>
</svg>
